# xmcd
#
# Track frame offsets:
# 150
# 15750
# 38100
# 54375
# 77925
# 94375
# 108600
# 122850
# 140325
# 160650
# 173475
# 182625
# 193352
# 214800
# 227872
# 243975
#
# Disc length: 3455 seconds
#
#
# Revision: 2
# Processed by: cddbd v1.5.1PL0 Copyright (c) Steve Scherf et al.
# Submitted via: FreeRIP 2.931 
#
DISCID=d60d7d10
DTITLE=Various Artist - The Ladies of Jazz and Blues - CD1
DYEAR=1900
DGENRE=Jazz
TTITLE0=Adrienne Morgan Hammond - In A Mellow Tone
TTITLE1=Big Time Sarah - Hochie Cochie Woman
TTITLE2=Nina Simone - My Baby Just Cares For Me
TTITLE3=Katie Webster - Basin Street Blues
TTITLE4=Ella Fitzgerald - It´s A Blue World
TTITLE5=Dinah Washington - Mellow Mama Blues
TTITLE6=Bessie Smith - Thinking Blues
TTITLE7=Sarah Vaughn - Sophisticated Sissy
TTITLE8=The Chicago All Stars - Soothe Me
TTITLE9=Katie Webster - Precious Lord
TTITLE10=Billie Holiday - Blue Moon
TTITLE11=Boswell Sisters - Everybody Loves My Baby
TTITLE12=Cat and The Gators - Baby Please
TTITLE13=Nina Simone - Something To Live For
TTITLE14=Maxine Sullivan - It Ain´t Necesarily So
TTITLE15=Ella Fitzgerald - I´m Confessin
EXTD=
EXTT0=
EXTT1=
EXTT2=
EXTT3=
EXTT4=
EXTT5=
EXTT6=
EXTT7=
EXTT8=
EXTT9=
EXTT10=
EXTT11=
EXTT12=
EXTT13=
EXTT14=
EXTT15=
PLAYORDER=
